<?xml version="1.0" encoding="UTF-8" standalone="no"?>
<svg
   xmlns:dc="http://purl.org/dc/elements/1.1/"
   xmlns:cc="http://creativecommons.org/ns#"
   xmlns:rdf="http://www.w3.org/1999/02/22-rdf-syntax-ns#"
   xmlns:svg="http://www.w3.org/2000/svg"
   xmlns="http://www.w3.org/2000/svg"
   xmlns:sodipodi="http://sodipodi.sourceforge.net/DTD/sodipodi-0.dtd"
   xmlns:inkscape="http://www.inkscape.org/namespaces/inkscape"
   width="434"
   height="114"
   viewBox="0 0 434 114"
   fill="none"
   version="1.1"
   id="svg4"
   sodipodi:docname="ARClogo.svg"
   inkscape:version="1.0.2 (e86c870879, 2021-01-15, custom)">
  <metadata
     id="metadata10">
    <rdf:RDF>
      <cc:Work
         rdf:about="">
        <dc:format>image/svg+xml</dc:format>
        <dc:type
           rdf:resource="http://purl.org/dc/dcmitype/StillImage" />
      </cc:Work>
    </rdf:RDF>
  </metadata>
  <defs
     id="defs8" />
  <sodipodi:namedview
     pagecolor="#ffffff"
     bordercolor="#666666"
     borderopacity="1"
     objecttolerance="10"
     gridtolerance="10"
     guidetolerance="10"
     inkscape:pageopacity="0"
     inkscape:pageshadow="2"
     inkscape:window-width="1920"
     inkscape:window-height="1001"
     id="namedview6"
     showgrid="false"
     inkscape:zoom="2.7995392"
     inkscape:cx="215.57119"
     inkscape:cy="57"
     inkscape:window-x="-9"
     inkscape:window-y="-9"
     inkscape:window-maximized="1"
     inkscape:current-layer="svg4" />
  <path
     d="M75.834 18.7617L14.9209 110.314C14.1885 111.535 13.2933 112.39 12.2354 112.878C11.1774 113.366 9.95671 113.61 8.57324 113.61C6.53874 113.61 4.6263 112.959 2.83594 111.657C1.04557 110.274 0.150391 108.483 0.150391 106.286C0.150391 105.716 0.231771 105.065 0.394531 104.333C0.557292 103.601 0.923503 102.868 1.49316 102.136L1.37109 102.258L65.0918 6.9209C66.3939 4.96777 67.9401 3.50293 69.7305 2.52637C71.6022 1.46842 73.5553 0.939453 75.5898 0.939453C77.4616 0.939453 79.3333 1.42773 81.2051 2.4043C83.1582 3.38086 84.8265 4.88639 86.21 6.9209L150.053 102.014H149.931C151.07 103.641 151.64 105.106 151.64 106.408C151.64 108.524 150.744 110.233 148.954 111.535C147.245 112.837 145.373 113.488 143.339 113.488C142.037 113.488 140.775 113.203 139.555 112.634C138.334 112.064 137.357 111.169 136.625 109.948V110.07L75.834 18.7617ZM273.954 29.626C273.954 20.1045 264.962 15.3438 246.977 15.3438H165.922C161.283 15.3438 158.964 13.2279 158.964 8.99609C158.964 4.35742 161.283 2.03809 165.922 2.03809H244.413C275.012 2.03809 290.312 11.5596 290.312 30.6025V42.5654C290.312 60.1436 276.233 68.9326 248.075 68.9326H205.839L277.616 99.6943C278.918 100.264 279.854 101.078 280.424 102.136C280.993 103.194 281.278 104.292 281.278 105.432C281.278 107.385 280.587 109.257 279.203 111.047C277.901 112.756 276.233 113.61 274.198 113.61C273.303 113.61 272.367 113.366 271.391 112.878L179.716 70.6416C178.332 70.0719 177.274 69.1768 176.542 67.9561C175.81 66.7354 175.443 65.4333 175.443 64.0498C175.443 62.0153 176.216 60.1436 177.763 58.4346C179.309 56.7256 181.506 55.8711 184.354 55.8711H249.662C265.857 55.8711 273.954 51.9242 273.954 44.0303V29.626ZM363.31 15.3438C344.836 15.3438 335.6 19.6162 335.6 28.1611V84.8018C335.6 94.7301 345.731 99.6943 365.995 99.6943H426.908C430.977 99.6943 433.012 101.892 433.012 106.286C433.012 110.762 430.977 113 426.908 113H363.798C334.094 113 319.242 103.723 319.242 85.168V28.1611C319.242 10.7458 333.809 2.03809 362.943 2.03809H386.015C390.084 2.03809 392.118 4.23535 392.118 8.62988C392.118 13.1058 390.084 15.3438 386.015 15.3438H363.31Z"
     fill="#36B2FF"
     id="path2"
     style="fill:#f2f2f2"
     inkscape:export-xdpi="96"
     inkscape:export-ydpi="96" />
</svg>
